# Blender 5.0.1
# www.blender.org
mtllib fingerplate.mtl
o fingerplate
v -0.382402 -0.740949 0.485285
v -0.382402 -0.740949 -0.485285
v -0.382402 0.064478 0.485285
v -0.382402 0.740949 0.042230
v -0.382402 0.170301 0.479831
v -0.382402 0.273519 0.463601
v -0.382402 0.371589 0.436995
v -0.382402 0.462098 0.400669
v -0.382402 0.542815 0.355517
v -0.382402 0.611755 0.302651
v -0.382402 0.667218 0.243373
v -0.382402 0.707840 0.179141
v -0.382402 0.732621 0.111539
v -0.382402 0.740949 -0.042230
v -0.382402 0.064478 -0.485285
v -0.382402 0.732621 -0.111539
v -0.382402 0.707840 -0.179141
v -0.382402 0.667218 -0.243373
v -0.382402 0.611755 -0.302651
v -0.382402 0.542815 -0.355517
v -0.382402 0.462098 -0.400669
v -0.382402 0.371589 -0.436995
v -0.382402 0.273519 -0.463601
v -0.382402 0.170301 -0.479831
v -0.382402 -0.740949 -0.485285
v -0.382402 -0.740949 0.485285
v -0.382402 0.740949 -0.042230
v -0.382402 0.732621 -0.111539
v -0.382402 0.707840 -0.179141
v -0.382402 0.667218 -0.243373
v -0.382402 0.611755 -0.302651
v -0.382402 0.542815 -0.355517
v -0.382402 0.462098 -0.400669
v -0.382402 0.371589 -0.436995
v -0.382402 0.273519 -0.463601
v -0.382402 0.170301 -0.479831
v -0.382402 0.064478 -0.485285
v -0.382402 0.740949 0.042230
v -0.382402 0.732621 0.111539
v -0.382402 0.707840 0.179141
v -0.382402 0.667218 0.243373
v -0.382402 0.611755 0.302651
v -0.382402 0.542815 0.355517
v -0.382402 0.462098 0.400669
v -0.382402 0.371589 0.436995
v -0.382402 0.273519 0.463601
v -0.382402 0.170301 0.479831
v -0.382402 0.064478 0.485285
v 0.000000 -0.740949 0.485285
v 0.000000 0.740949 -0.042230
v 0.000000 0.732621 0.111539
v 0.000000 0.707840 0.179141
v 0.000000 0.667218 0.243373
v 0.000000 0.611755 0.302651
v 0.000000 0.542815 0.355517
v 0.000000 0.462098 0.400669
v 0.000000 0.371589 0.436995
v 0.000000 0.273519 0.463601
v 0.000000 0.170301 0.479831
v 0.000000 0.064478 0.485285
v 0.000000 -0.740949 -0.485285
v 0.000000 0.732621 -0.111539
v 0.000000 0.707840 -0.179141
v 0.000000 0.667218 -0.243373
v 0.000000 0.611755 -0.302651
v 0.000000 0.542815 -0.355517
v 0.000000 0.462098 -0.400669
v 0.000000 0.371589 -0.436995
v 0.000000 0.273519 -0.463601
v 0.000000 0.170301 -0.479831
v 0.000000 0.064478 -0.485285
v 0.000000 0.740949 0.042230
v -0.382402 -0.459050 -0.485285
v -0.382402 -0.459050 -0.485285
v 0.000000 -0.459050 -0.485285
v -0.382402 -0.459050 0.485285
v -0.382402 -0.459050 0.485285
v 0.000000 -0.459050 0.485285
vn -0.0000 1.0000 -0.0000
vn -1.0000 -0.0000 -0.0000
vn -0.0000 -0.0000 1.0000
vn -0.0000 0.0515 0.9987
vn -0.0000 0.1553 0.9879
vn -0.0000 0.2618 0.9651
vn -0.0000 0.3725 0.9280
vn -0.0000 0.4882 0.8727
vn -0.0000 0.6085 0.7935
vn -0.0000 0.7302 0.6832
vn -0.0000 0.8452 0.5345
vn -0.0000 0.9389 0.3442
vn -0.0000 0.9929 0.1193
vn -0.0000 -0.0000 -1.0000
vn -0.0000 0.0515 -0.9987
vn -0.0000 0.1553 -0.9879
vn -0.0000 0.2618 -0.9651
vn -0.0000 0.3725 -0.9280
vn -0.0000 0.4882 -0.8727
vn -0.0000 0.6085 -0.7935
vn -0.0000 0.7302 -0.6832
vn -0.0000 0.8452 -0.5345
vn -0.0000 0.9389 -0.3442
vn -0.0000 0.9929 -0.1193
vn -0.0000 -1.0000 -0.0000
vn 1.0000 -0.0000 -0.0000
vt 0.875000 0.635877
vt 0.875000 0.635877
vt 0.875000 0.653730
vt 0.875000 0.671143
vt 0.875000 0.687688
vt 0.875000 0.702957
vt 0.875000 0.750000
vt 0.625000 1.000000
vt 0.577957 1.000000
vt 0.577957 1.000000
vt 0.562688 1.000000
vt 0.546143 1.000000
vt 0.528730 1.000000
vt 0.510878 1.000000
vt 0.422557 1.000000
vt 0.422557 1.000000
vt 0.375000 0.000000
vt 0.422557 0.000000
vt 0.510878 0.000000
vt 0.528730 0.001405
vt 0.546143 0.005586
vt 0.562688 0.012439
vt 0.577957 0.021795
vt 0.591574 0.033426
vt 0.603205 0.047043
vt 0.612561 0.062312
vt 0.619414 0.078857
vt 0.623595 0.096270
vt 0.625000 0.114122
vt 0.625000 0.135878
vt 0.623595 0.153730
vt 0.619414 0.171143
vt 0.612561 0.187688
vt 0.603205 0.202957
vt 0.608287 0.233287
vt 0.577957 0.242735
vt 0.562688 0.245854
vt 0.546143 0.248138
vt 0.528730 0.249532
vt 0.510878 0.250000
vt 0.422557 0.250000
vt 0.375000 0.250000
vt 0.875000 0.614123
vt 0.875000 0.614123
vt 0.422557 0.250000
vt 0.750000 0.614123
vt 0.750000 0.635877
vt 0.422557 0.875000
vt 0.510878 0.875000
vt 0.528730 0.874766
vt 0.546143 0.874069
vt 0.562688 0.872927
vt 0.577957 0.871367
vt 0.619429 0.869429
vt 0.746367 0.702957
vt 0.744429 0.744429
vt 0.747927 0.687688
vt 0.749069 0.671143
vt 0.749766 0.653730
vt 0.577957 0.242735
vt 0.875000 0.547043
vt 0.875000 0.500000
vt 0.875000 0.562312
vt 0.875000 0.578857
vt 0.875000 0.596270
vt 0.125000 0.500000
vt 0.125000 0.750000
vt 0.510878 0.375000
vt 0.422557 0.375000
vt 0.528730 0.375000
vt 0.546143 0.375000
vt 0.562688 0.375000
vt 0.577957 0.375000
vt 0.611073 0.372215
vt 0.746367 0.547043
vt 0.744429 0.505571
vt 0.747927 0.562312
vt 0.749069 0.578857
vt 0.749766 0.596270
vt 0.250000 0.500000
vt 0.250000 0.750000
vt 0.375000 0.375000
vt 0.375000 0.875000
vt 0.375000 1.000000
s 0
f 38/1/1 4/2/1 13/3/1 39/3/1
f 39/3/1 13/3/1 12/4/1 40/4/1
f 40/4/1 12/4/1 11/5/1 41/5/1
f 41/5/1 11/5/1 10/6/1 42/6/1
f 42/6/1 10/6/1 9/7/1 43/7/1
f 43/8/1 9/8/1 8/9/1 44/10/1
f 44/10/1 8/9/1 7/11/1 45/11/1
f 45/11/1 7/11/1 6/12/1 46/12/1
f 46/12/1 6/12/1 5/13/1 47/13/1
f 47/13/1 5/13/1 3/14/1 48/14/1
f 77/15/1 48/14/1 3/14/1 76/16/1
f 1/17/2 76/18/2 3/19/2 5/20/2 6/21/2 7/22/2 8/23/2 9/24/2 10/25/2 11/26/2 12/27/2 13/28/2 4/29/2 14/30/2 16/31/2 17/32/2 18/33/2 19/34/2 20/35/2 21/36/2 22/37/2 23/38/2 24/39/2 15/40/2 73/41/2 2/42/2
f 27/43/1 14/44/1 4/2/1 38/1/1
f 73/41/1 15/40/1 37/40/1 74/45/1
f 50/46/1 27/43/1 38/1/1 72/47/1
f 78/48/3 60/49/3 48/14/3 77/15/3
f 59/50/4 47/13/4 48/14/4 60/49/4
f 58/51/5 46/12/5 47/13/5 59/50/5
f 57/52/6 45/11/6 46/12/6 58/51/6
f 56/53/7 44/10/7 45/11/7 57/52/7
f 55/54/8 43/8/8 44/10/8 56/53/8
f 54/55/9 42/6/9 43/7/9 55/56/9
f 53/57/10 41/5/10 42/6/10 54/55/10
f 52/58/11 40/4/11 41/5/11 53/57/11
f 51/59/12 39/3/12 40/4/12 52/58/12
f 72/47/13 38/1/13 39/3/13 51/59/13
f 24/39/1 36/39/1 37/40/1 15/40/1
f 23/38/1 35/38/1 36/39/1 24/39/1
f 22/37/1 34/37/1 35/38/1 23/38/1
f 21/36/1 33/60/1 34/37/1 22/37/1
f 20/35/1 32/35/1 33/60/1 21/36/1
f 19/61/1 31/61/1 32/62/1 20/62/1
f 18/63/1 30/63/1 31/61/1 19/61/1
f 17/64/1 29/64/1 30/63/1 18/63/1
f 16/65/1 28/65/1 29/64/1 17/64/1
f 14/44/1 27/43/1 28/65/1 16/65/1
f 2/66/1 25/66/1 26/67/1 1/67/1
f 74/45/14 37/40/14 71/68/14 75/69/14
f 36/39/15 70/70/15 71/68/15 37/40/15
f 35/38/16 69/71/16 70/70/16 36/39/16
f 34/37/17 68/72/17 69/71/17 35/38/17
f 33/60/18 67/73/18 68/72/18 34/37/18
f 32/35/19 66/74/19 67/73/19 33/60/19
f 31/61/20 65/75/20 66/76/20 32/62/20
f 30/63/21 64/77/21 65/75/21 31/61/21
f 29/64/22 63/78/22 64/77/22 30/63/22
f 28/65/23 62/79/23 63/78/23 29/64/23
f 27/43/24 50/46/24 62/79/24 28/65/24
f 25/66/25 61/80/25 49/81/25 26/67/25
f 25/42/14 74/45/14 75/69/14 61/82/14
f 2/42/1 73/41/1 74/45/1 25/42/1
f 51/59/26 52/58/26 53/57/26 54/55/26 55/56/26 56/53/26 57/52/26 58/51/26 59/50/26 60/49/26 78/48/26 49/83/26 61/80/26 75/69/26 71/68/26 70/70/26 69/71/26 68/72/26 67/73/26 66/74/26 65/75/26 64/77/26 63/78/26 62/79/26 50/46/26 72/47/26
f 49/83/3 78/48/3 77/15/3 26/84/3
f 26/84/1 77/15/1 76/16/1 1/84/1
